<svg xmlns="http://www.w3.org/2000/svg" viewBox="0 0 200 200" width="400" height="400">
  <rect width="100%" height="100%" fill="#fff"/>
  <!-- Dummy QR pattern (decorative) -->
  <rect x="12" y="12" width="48" height="48" fill="#111" />
  <rect x="140" y="12" width="48" height="48" fill="#111" />
  <rect x="12" y="140" width="48" height="48" fill="#111" />
  <g fill="#111">
    <rect x="80" y="20" width="8" height="8"/>
    <rect x="92" y="20" width="8" height="8"/>
    <rect x="104" y="20" width="8" height="8"/>
    <rect x="80" y="32" width="8" height="8"/>
    <rect x="92" y="32" width="8" height="8"/>
    <rect x="104" y="32" width="8" height="8"/>
    <!-- center pattern -->
    <rect x="80" y="80" width="40" height="40"/>
    <rect x="126" y="80" width="8" height="8"/>
    <rect x="140" y="96" width="8" height="8"/>

    <!-- small dots -->
    <rect x="24" y="72" width="6" height="6"/>
    <rect x="40" y="72" width="6" height="6"/>
    <rect x="56" y="72" width="6" height="6"/>
  </g>
</svg>